<svg xmlns="http://www.w3.org/2000/svg" width="1024" height="1024"><path d="M277.5 767.588c-1.65-.733-4.125-2.553-5.5-4.043l-2.5-2.71v-27.168c0-25.309.159-27.748 2.32-35.667 2.62-9.598 8.417-22.577 13.166-29.48 9.328-13.557 25.76-26.577 40.925-32.425 16.675-6.431 18.134-6.6 56.589-6.546 34.842.048 35.045.06 45 2.754 19.15 5.183 35.656 15.49 46.811 29.232 6 7.39 13.873 23.348 16.759 33.965 1.924 7.078 2.23 11.29 2.651 36.556l.477 28.555-2.663 3.165c-1.465 1.741-4.322 3.626-6.35 4.19-2.405.667-38.598 1.011-104.185.99-81.528-.028-101.066-.286-103.5-1.368zm258.821-1.201c-5.73-2.826-6.322-5.637-6.315-30.038.01-38.1 4.469-54.948 19.546-73.87 12.361-15.511 28.22-25.414 49.231-30.743 8.183-2.075 10.831-2.208 43.217-2.165 34.087.046 34.617.078 44.28 2.688 35.81 9.671 61.665 38.792 66.646 75.063 1.341 9.769 1.416 50.648.099 54.112-.536 1.411-2.449 3.464-4.25 4.562-3.218 1.962-5.074 1.996-106.275 1.977-91.49-.016-103.355-.194-106.179-1.586zm-170.249-147.94c-12.172-2.64-25.692-10.217-35.07-19.656-22.51-22.658-27.222-55.271-12.175-84.291 2.52-4.859 6.389-9.792 12.651-16.13 7.814-7.907 10.294-9.734 18.522-13.653 5.225-2.488 11.975-5.122 15-5.852 8.189-1.978 27.098-1.747 35 .427 14.399 3.962 28.11 12.875 37.274 24.232 6.485 8.038 9.325 13.287 12.97 23.976 2.708 7.946 3.072 10.347 3.107 20.5.046 13.608-1.568 20.605-7.612 33-3.36 6.891-5.857 10.219-13.192 17.582-7.352 7.381-10.64 9.864-17.547 13.256-15.8 7.758-32.95 10.074-48.928 6.609zm261.928.037c-15.175-3.1-24.893-8.358-36-19.476-9.365-9.374-13.929-16.33-17.503-26.673-8.53-24.688-2.95-52.19 14.513-71.525 34.132-37.797 95.279-28.556 117.559 17.766 4.473 9.3 6.392 18.429 6.414 30.514.08 44.656-41.177 78.345-84.983 69.394zM156.994 531.75l-.006-60.25-4.888-.096c-6.1-.12-11.025-2.856-13.387-7.438-1.517-2.943-1.744-5.615-1.5-17.702l.287-14.236 3.765-3.764 3.765-3.764 23.225-.304c20.486-.268 23.337-.502 24.163-1.979 1.804-3.222 19.958-26.793 27.124-35.217 46.113-54.204 109.881-95.331 179.07-115.49 36.316-10.582 63.193-14.456 105.556-15.216 42.562-.764 71.39 2.156 104.993 10.634 89.515 22.585 160.991 70.747 215.67 145.322l8.616 11.75h21.629c20.821 0 21.755.085 25.026 2.27 5.712 3.816 6.895 7.507 6.897 21.53 0 8.618-.42 13.108-1.404 15-2.534 4.87-5.997 7.21-12.444 8.41L867 472.352V592H754v-22.093c0-18.4-.346-23.79-2.07-32.25C739.439 476.333 676.425 421.23 593 398.682c-68.226-18.441-145.82-12.46-207.176 15.968-49.163 22.778-84.135 54.31-103.291 93.128C272.476 528.158 270 540.472 270 570.11V592H157Zm124.62-115.823c70.806-44.36 148.351-67.088 229.386-67.229 82.487-.144 163.647 23.772 235.714 69.46l9.214 5.842h12.536c6.895 0 12.536-.283 12.536-.628 0-1.487-15.335-18.828-26.438-29.896-29.117-29.026-65.483-53.475-104.033-69.94-81.764-34.924-184.37-36.492-267.484-4.088-44.577 17.379-82.902 42.323-116.045 75.527-12.222 12.245-25 26.753-25 28.386 0 .352 6.014.639 13.364.639h13.364z" style="fill:#ffffff"/></svg>